<svg xmlns="http://www.w3.org/2000/svg" viewBox="0 0 1600 1200" width="1600" height="1200">
      <rect width="1600" height="1200" fill="#FFE600"/>
      <polygon points="0,0 1600,0 0,1200" fill="#00E0FF" stroke="#0A0A0A" stroke-width="17"/>
      <polygon points="1600,120 1600,1200 288,1200" fill="#7B4DFF" stroke="#0A0A0A" stroke-width="17"/>
      <circle cx="848" cy="648" r="228" fill="#0A0A0A" stroke="none" stroke-width="0"/><circle cx="800" cy="600" r="228" fill="#FFFFFF" stroke="#0A0A0A" stroke-width="22.1"/>
      <circle cx="128" cy="99" r="3.73" fill="#0A0A0A"/><circle cx="128" cy="153" r="3.73" fill="#0A0A0A"/><circle cx="128" cy="207" r="3.73" fill="#0A0A0A"/><circle cx="128" cy="261" r="3.73" fill="#0A0A0A"/><circle cx="192" cy="99" r="7.95" fill="#0A0A0A"/><circle cx="192" cy="153" r="7.95" fill="#0A0A0A"/><circle cx="192" cy="207" r="7.95" fill="#0A0A0A"/><circle cx="192" cy="261" r="7.95" fill="#0A0A0A"/><circle cx="256" cy="99" r="12.17" fill="#0A0A0A"/><circle cx="256" cy="153" r="12.17" fill="#0A0A0A"/><circle cx="256" cy="207" r="12.17" fill="#0A0A0A"/><circle cx="256" cy="261" r="12.17" fill="#0A0A0A"/><circle cx="320" cy="99" r="16.39" fill="#0A0A0A"/><circle cx="320" cy="153" r="16.39" fill="#0A0A0A"/><circle cx="320" cy="207" r="16.39" fill="#0A0A0A"/><circle cx="320" cy="261" r="16.39" fill="#0A0A0A"/><circle cx="384" cy="99" r="20.62" fill="#0A0A0A"/><circle cx="384" cy="153" r="20.62" fill="#0A0A0A"/><circle cx="384" cy="207" r="20.62" fill="#0A0A0A"/><circle cx="384" cy="261" r="20.62" fill="#0A0A0A"/><circle cx="448" cy="99" r="24.84" fill="#0A0A0A"/><circle cx="448" cy="153" r="24.84" fill="#0A0A0A"/><circle cx="448" cy="207" r="24.84" fill="#0A0A0A"/><circle cx="448" cy="261" r="24.84" fill="#0A0A0A"/>
    </svg>